<?xml version="1.0" standalone="no"?>
<!DOCTYPE svg PUBLIC "-//W3C//DTD SVG 20010904//EN"
 "http://www.w3.org/TR/2001/REC-SVG-20010904/DTD/svg10.dtd">
<svg version="1.0" xmlns="http://www.w3.org/2000/svg"
 width="596.000000pt" height="596.000000pt" viewBox="0 0 596.000000 596.000000"
 preserveAspectRatio="xMidYMid meet">
<metadata>
Created by potrace 1.14, written by Peter Selinger 2001-2017
</metadata>
<g transform="translate(0.000000,596.000000) scale(0.100000,-0.100000)"
fill="#000000" stroke="none">
<path d="M2870 4941 l-145 -60 -5 -43 c-6 -53 -22 -58 -109 -28 -34 11 -78 21
-99 22 -50 3 -175 -56 -224 -105 -29 -30 -44 -38 -61 -33 -20 5 -107 -24 -143
-46 -7 -5 -9 -34 -7 -81 l4 -74 -98 -43 c-54 -23 -120 -53 -148 -65 -27 -13
-90 -41 -140 -64 l-90 -40 -3 38 c-3 41 6 36 -153 98 l-77 31 -123 -52 -124
-52 3 -69 c1 -39 4 -98 6 -132 l4 -62 -76 -32 c-43 -17 -95 -39 -117 -49 -22
-9 -53 -22 -69 -29 l-29 -12 7 -122 c4 -67 9 -182 12 -255 l6 -133 -31 -12
c-30 -11 -30 -12 -26 -72 2 -33 6 -99 9 -147 18 -276 24 -349 28 -352 2 -1 27
-13 56 -26 46 -21 52 -27 53 -54 0 -17 2 -38 3 -46 2 -8 6 -62 10 -120 4 -58
9 -121 11 -140 2 -19 6 -75 9 -125 4 -49 9 -117 12 -150 3 -33 7 -73 9 -88 2
-24 -3 -31 -31 -44 -18 -9 -31 -19 -29 -22 3 -6 12 -116 20 -246 20 -319 22
-337 48 -358 12 -10 69 -49 127 -86 58 -38 140 -92 183 -120 43 -28 83 -51 88
-51 5 0 9 -4 9 -10 0 -6 9 -6 26 0 29 11 -12 35 544 -310 182 -113 338 -209
348 -215 10 -5 147 -91 306 -189 159 -99 294 -179 300 -179 6 0 70 35 141 78
72 43 144 86 160 95 31 18 508 300 870 516 110 65 209 124 220 130 11 6 83 48
160 94 77 46 205 121 285 168 80 47 151 90 158 96 7 7 14 37 17 67 10 116 15
175 20 209 9 70 19 196 19 244 1 48 0 49 -47 74 l-47 26 5 71 c3 38 7 99 10
135 3 36 7 108 10 160 4 52 8 115 10 140 2 25 7 97 10 160 4 63 8 126 8 140 1
17 11 29 30 37 18 8 27 20 28 35 0 13 2 30 4 38 2 14 9 75 21 199 3 30 7 58 9
61 2 4 -2 17 -8 31 -13 25 -13 31 -3 122 10 96 31 318 41 447 l6 75 -163 69
c-90 38 -192 83 -228 99 -36 16 -141 62 -235 102 -93 40 -205 89 -248 109 -42
20 -82 36 -87 36 -6 0 -10 6 -11 13 0 6 -1 50 -2 97 l-2 84 -115 49 -115 50
-68 -23 c-53 -18 -69 -28 -73 -47 -4 -12 -8 -23 -10 -23 -2 0 -40 19 -84 42
l-79 43 2 50 2 50 -60 19 c-66 21 -75 28 -75 69 0 32 -5 34 -132 72 -53 15
-87 30 -85 38 2 12 -112 54 -173 62 -27 4 -68 -9 -180 -54z"/>
</g>
</svg>
